<?xml version="1.0" encoding="UTF-8" standalone="no"?>
<!-- Created with Inkscape (http://www.inkscape.org/) -->

<svg
   xmlns:dc="http://purl.org/dc/elements/1.1/"
   xmlns:cc="http://creativecommons.org/ns#"
   xmlns:rdf="http://www.w3.org/1999/02/22-rdf-syntax-ns#"
   xmlns:svg="http://www.w3.org/2000/svg"
   xmlns="http://www.w3.org/2000/svg"
   xmlns:xlink="http://www.w3.org/1999/xlink"
   xmlns:sodipodi="http://sodipodi.sourceforge.net/DTD/sodipodi-0.dtd"
   xmlns:inkscape="http://www.inkscape.org/namespaces/inkscape"
   width="80"
   height="80"
   viewBox="0 0 21.166666 21.166666"
   version="1.1"
   id="svg8"
   inkscape:export-filename="D:\usr\src\godot\plugins\groot\icon.png"
   inkscape:export-xdpi="175.53999"
   inkscape:export-ydpi="175.53999"
   sodipodi:docname="icon.svg"
   inkscape:version="0.92.4 (5da689c313, 2019-01-14)">
  <defs
     id="defs2">
    <linearGradient
       inkscape:collect="always"
       id="linearGradient5167">
      <stop
         id="stop5165"
         offset="0"
         style="stop-color:#5ec2e9;stop-opacity:1" />
      <stop
         id="stop5163"
         offset="1"
         style="stop-color:#126392;stop-opacity:1" />
    </linearGradient>
    <linearGradient
       inkscape:collect="always"
       xlink:href="#linearGradient5167"
       id="linearGradient5169"
       x1="40"
       y1="5"
       x2="40"
       y2="75"
       gradientUnits="userSpaceOnUse" />
  </defs>
  <sodipodi:namedview
     id="base"
     pagecolor="#ffffff"
     bordercolor="#666666"
     borderopacity="1.0"
     inkscape:pageopacity="0.0"
     inkscape:pageshadow="2"
     inkscape:zoom="3.959798"
     inkscape:cx="66.335885"
     inkscape:cy="32.741415"
     inkscape:document-units="mm"
     inkscape:current-layer="layer1"
     showgrid="true"
     units="px"
     inkscape:window-width="1920"
     inkscape:window-height="1017"
     inkscape:window-x="1912"
     inkscape:window-y="-8"
     inkscape:window-maximized="1"
     inkscape:snap-grids="true">
    <inkscape:grid
       type="xygrid"
       id="grid5073"
       spacingx="1.3229166"
       spacingy="1.3229166"
       empspacing="4" />
  </sodipodi:namedview>
  <metadata
     id="metadata5">
    <rdf:RDF>
      <cc:Work
         rdf:about="">
        <dc:format>image/svg+xml</dc:format>
        <dc:type
           rdf:resource="http://purl.org/dc/dcmitype/StillImage" />
        <dc:title></dc:title>
      </cc:Work>
    </rdf:RDF>
  </metadata>
  <g
     inkscape:label="Layer 1"
     inkscape:groupmode="layer"
     id="layer1"
     transform="translate(0,-275.83335)">
    <path
       style="opacity:1;fill:url(#linearGradient5169);fill-opacity:1;fill-rule:nonzero;stroke:#c7e5f9;stroke-width:1.24346461;stroke-linecap:butt;stroke-linejoin:round;stroke-miterlimit:4;stroke-dasharray:none;stroke-dashoffset:0;stroke-opacity:1;paint-order:markers fill stroke"
       d="M 40 5 A 19.999998 17.500001 0 0 0 35 5.578125 L 35 15 L 30 15 L 30 7.3632812 A 19.999998 17.500001 0 0 0 20 22.5 A 19.999998 17.500001 0 0 0 20.017578 22.947266 L 8.5351562 11.464844 L 5 15 L 29.748047 39.748047 L 30 39.496094 L 30 60 L 10 60 L 10 70 L 10 75 L 15 75 L 15 70 L 20 70 L 25 70 L 30 70 L 35 70 L 35 75 L 40 75 L 45 75 L 45 70 L 50 70 L 55 70 L 60 70 L 65 70 L 65 75 L 70 75 L 70 70 L 70 60 L 50 60 L 50 39.496094 L 50.251953 39.748047 L 75 15 L 71.464844 11.464844 L 59.974609 22.955078 A 19.999998 17.500001 0 0 0 60 22.5 A 19.999998 17.500001 0 0 0 50 7.3691406 L 50 15 L 45 15 L 45 5.5703125 A 19.999998 17.500001 0 0 0 40 5 z M 32.5 20 A 2.4999997 2.4999997 0 0 1 35 22.5 A 2.4999997 2.4999997 0 0 1 32.5 25 A 2.4999997 2.4999997 0 0 1 30 22.5 A 2.4999997 2.4999997 0 0 1 32.5 20 z M 47.5 20 A 2.4999997 2.4999997 0 0 1 50 22.5 A 2.4999997 2.4999997 0 0 1 47.5 25 A 2.4999997 2.4999997 0 0 1 45 22.5 A 2.4999997 2.4999997 0 0 1 47.5 20 z M 35 30 L 45 30 L 45 35 L 35 35 L 35 30 z "
       transform="matrix(0.26458333,0,0,0.26458333,0,275.83335)"
       id="rect5091" />
  </g>
</svg>
